<svg width="185" height="184" fill="none" xmlns="http://www.w3.org/2000/svg"><path d="M184.386 183.598h-.798V92.044C183.58 41.787 142.733.904 92.535.904h-.016C42.33.913 1.49 41.798 1.482 92.044V183.6h-.8V92.044C.692 41.357 41.89.114 92.52.104h.016c50.642 0 91.843 41.24 91.851 91.94v91.554z" fill="#1C1C1C"/><path d="M176.787 183.599h-.799V92.04c0-46.067-37.437-83.546-83.453-83.546C46.519 8.494 9.08 45.973 9.08 92.04v91.56h-.798V92.04c0-46.509 37.795-84.346 84.252-84.346 46.457 0 84.252 37.837 84.252 84.346v91.56z" fill="#1C1C1C"/><path d="M169.187 183.599h-.799V92.044c-.004-41.866-34.035-75.93-75.853-75.93h-.008c-41.817.005-75.841 34.067-75.846 75.93V183.6h-.799V92.044c.005-42.304 34.388-76.725 76.645-76.73h.008c42.262 0 76.648 34.42 76.652 76.73V183.6z" fill="#1C1C1C"/><path d="M161.588 183.598h-.799V92.044c0-37.677-30.618-68.33-68.253-68.33-37.635 0-68.253 30.653-68.253 68.33V183.6h-.799V92.044c0-38.118 30.977-69.129 69.052-69.129 38.076 0 69.052 31.011 69.052 69.13v91.553z" fill="#1C1C1C"/><path d="M153.986 183.598h-.799V92.044c-.001-16.219-6.311-31.467-17.767-42.934-11.456-11.466-26.686-17.782-42.885-17.782h-.004c-33.44.003-60.646 27.24-60.649 60.716V183.6h-.798V92.044C31.086 58.127 58.65 30.531 92.53 30.53h.004c16.412 0 31.842 6.397 43.449 18.016 11.607 11.618 18.001 27.067 18.002 43.5v91.553z" fill="#1C1C1C"/><path d="M146.386 183.598h-.799V92.044c0-29.286-23.799-53.111-53.052-53.111-29.254 0-53.053 23.825-53.053 53.111V183.6h-.799V92.044c0-29.727 24.158-53.911 53.852-53.911 29.694 0 53.851 24.184 53.851 53.911v91.554z" fill="#1C1C1C"/><path d="M138.786 183.6h-.798V92.044c0-25.09-20.39-45.504-45.453-45.504-25.064 0-45.453 20.412-45.453 45.503V183.6h-.8V92.044c0-25.532 20.75-46.304 46.253-46.304s46.251 20.772 46.251 46.303V183.6z" fill="#1C1C1C"/><path d="M131.187 183.599h-.799V92.044c0-20.895-16.98-37.895-37.853-37.895s-37.854 17-37.854 37.895V183.6h-.798V92.044c0-21.336 17.34-38.695 38.652-38.695s38.652 17.36 38.652 38.695V183.6z" fill="#1C1C1C"/><path d="M123.587 183.599h-.798V92.044c0-16.7-13.573-30.288-30.254-30.288-16.682 0-30.254 13.587-30.254 30.288v91.555h-.799V92.044c0-17.142 13.93-31.087 31.053-31.087 17.122 0 31.052 13.945 31.052 31.087v91.555z" fill="#1C1C1C"/><path d="M115.988 183.598h-.799V92.044a22.545 22.545 0 00-6.637-16.036 22.494 22.494 0 00-16.017-6.64h-.003c-12.489 0-22.65 10.173-22.651 22.676V183.6h-.8V92.044c.002-12.943 10.522-23.475 23.451-23.477h.003c12.93 0 23.451 10.531 23.453 23.477v91.554z" fill="#1C1C1C"/><path d="M107.988 183.598V92.044c-.062-8.544-7.029-15.42-15.564-15.359-8.447.06-15.28 6.902-15.342 15.36v91.554" fill="#1C1C1C"/></svg>