<svg width="126" height="225" fill="none" xmlns="http://www.w3.org/2000/svg"><path d="M67.14 224.927H.575V33.437C.542 15.033 15.47.034 33.854 0c33.287 0 33.287 15.495 33.287 33.437v191.49zm-65.767-.799h64.97V33.437c0-18.234 0-32.637-32.487-32.637C15.914.832 1.342 15.473 1.373 33.436v190.692z" fill="#1E1E1E"/><path d="M42.723.4h-.268C24.367.4 9.705 15.078 9.705 33.187V224.58h65.768V33.187C75.473 15.078 60.811.4 42.723.4z" fill="#1E1E1E"/><path d="M99.124 124.763c-4.83-10.817-3.81 9.196-7.12 4.609v7.564l1.78 7.699h3.56l1.78-7.699v-12.173z" fill="#E2905A"/><path d="M99.523 107.877h-7.919V92.53c0-.889.722-1.61 1.61-1.61h4.702a1.61 1.61 0 011.608 1.61v15.347zm-7.12-.799h6.32V92.53a.811.811 0 00-.81-.81h-4.7a.812.812 0 00-.811.81v14.548z" fill="#1E1E1E"/><path d="M105.623 77.888l-8.235 7.772c-3.013-6.646.695-11.424 6.789-15.542 6.096-4.117 1.446 7.77 1.446 7.77z" fill="#BCD6CA"/><path d="M105.623 77.89l-8.235 7.77c-3.013-6.644.695-11.423 6.789-15.54" fill="#BCD6CA"/><path d="M97.256 86.336l-.231-.51c-3.532-7.792 2.264-12.885 6.93-16.038l.447.663c-6.909 4.669-9.049 9.17-6.872 14.528l7.82-7.38.548.582-8.642 8.155z" fill="#1E1E1E"/><path d="M110.429 51.945s14.266 17.576 14.266 17.853c0 .278-1.309 35.106-1.309 35.106s-5.878.492-6.664-8.273c-.784-8.764-1.726-15.788-1.726-15.788" fill="#BCD6CA"/><path d="M123.266 105.306c-.972 0-6.202-.389-6.941-8.64a406.883 406.883 0 00-1.724-15.771l.791-.107c.01.07.951 7.133 1.729 15.806.637 7.108 4.648 7.852 5.881 7.911.138-3.686 1.224-32.611 1.29-34.608-.724-1.067-8.788-11.066-14.173-17.701l.619-.505c14.356 17.687 14.356 17.92 14.356 18.106 0 .277-1.175 31.555-1.308 35.12l-.014.355-.352.029a1.32 1.32 0 01-.154.005z" fill="#1E1E1E"/><path d="M108.082 66.458s-1.741 16.474-9.777 25.902c-5.529 6.486 2.09 10.401 2.09 10.401s13.198-18.552 17.641-27.269c4.442-8.716-6.55-24.47-14.321-30.017-29.186-2.545-45.93-10.128-55.081-10.895a13.39 13.39 0 00-8.196 2.138 13.415 13.415 0 00-5.278 6.631 22.823 22.823 0 00-1.133 4.228 11.976 11.976 0 001.408 7.826 11.955 11.955 0 005.996 5.214l14.683 4.558s19.151 14.499 20.14 15.408c10.972 10.085 15.387 17.255 15.387 17.255s5.62-5.24 1.176-11.595c-4.445-6.355-14.73-17.053-3.231-23.16 11.498-6.107 16.951 11.523 16.951 11.523" fill="#BCD6CA"/><path d="M100.52 103.274l-.307-.157c-.146-.075-3.578-1.872-4.219-5.117-.377-1.91.3-3.895 2.008-5.899 4.251-4.988 6.731-12.041 8.115-17.495-.367-1.103-3.325-9.515-8.91-11.821-2.318-.958-4.818-.737-7.434.651-2.796 1.485-4.395 3.282-4.888 5.493-1.034 4.637 3.082 10.126 6.389 14.537.678.905 1.319 1.76 1.87 2.548 4.591 6.564-1.172 12.063-1.23 12.117l-.357.332-.255-.414c-.044-.072-4.52-7.248-15.317-17.171-.939-.862-18.91-14.474-20.055-15.342l-14.618-4.538c-5.381-2.128-8.6-7.796-7.68-13.485.247-1.468.633-2.91 1.154-4.303 2.095-5.72 7.793-9.425 13.873-9.029 3.347.28 7.689 1.46 13.186 2.951 9.829 2.668 23.29 6.321 41.904 7.945l.109.01.088.063c7.554 5.392 19.057 21.475 14.445 30.524-4.405 8.643-17.539 27.133-17.671 27.319l-.2.281zm7.165-36.858l.794.084c-.017.166-1.847 16.705-9.871 26.12-1.542 1.808-2.157 3.566-1.83 5.224.462 2.346 2.687 3.893 3.501 4.389 1.707-2.413 13.329-18.932 17.402-26.923 4.402-8.64-6.748-24.133-14.109-29.447-18.63-1.634-32.098-5.29-41.936-7.96-5.458-1.482-9.768-2.652-13.036-2.926-5.719-.38-11.09 3.118-13.064 8.508a22.331 22.331 0 00-1.115 4.158c-.86 5.319 2.15 10.62 7.157 12.601l14.777 4.611c.782.593 19.178 14.521 20.17 15.433C85.91 88.915 90.567 95.502 91.702 97.2c1.116-1.234 4.394-5.57.786-10.728a98.08 98.08 0 00-1.854-2.526c-3.406-4.543-7.643-10.196-6.53-15.193.54-2.419 2.32-4.446 5.293-6.025 2.837-1.507 5.566-1.737 8.116-.683 4.978 2.057 7.885 8.387 8.945 11.146.91-3.91 1.219-6.708 1.226-6.775z" fill="#1E1E1E"/><path d="M92.442 157.846c.473 1.968 1.642 3.668 3.664 3.668a3.664 3.664 0 003.664-3.668c0-2.024-2.286-2.514-4.074-8.51-.728-2.46-4.121 4.881-3.254 8.51z" fill="#E2905A"/><path d="M97.111 207.873c-3.744 0-6.79-3.049-6.79-6.797 0-3.749 3.046-6.798 6.79-6.798s6.79 3.049 6.79 6.798c0 3.748-3.046 6.797-6.79 6.797zm0-12.795c-3.304 0-5.99 2.69-5.99 5.998 0 3.307 2.686 5.997 5.99 5.997 3.304 0 5.991-2.69 5.991-5.997 0-3.308-2.687-5.998-5.99-5.998z" fill="#1C1C1C"/><path d="M97.111 204.674a3.605 3.605 0 01-3.594-3.598 3.601 3.601 0 013.594-3.599 3.602 3.602 0 013.595 3.599 3.6 3.6 0 01-3.595 3.598zm0-6.397a2.8 2.8 0 00-2.796 2.799 2.8 2.8 0 002.796 2.798 2.8 2.8 0 002.796-2.798 2.8 2.8 0 00-2.796-2.799z" fill="#1C1C1C"/><path d="M104.396 176.123v-9.652H89.72v9.652h-4.2V225h23.075v-48.877h-4.199zm-13.877-8.852h13.078v8.851H90.519v-8.851zm17.277 56.929H86.319v-47.277h21.477V224.2z" fill="#1E1E1E"/><path d="M107.931 199.167a16.155 16.155 0 00-21.75-.369l-.526-.601a16.946 16.946 0 0122.821.385l-.545.585z" fill="#1C1C1C"/><path d="M105.6 196.874l1.322-3.458a.094.094 0 00-.044-.109.097.097 0 00-.06-.013.1.1 0 00-.056.028l-2.356 2.879 1.194.673zm-2.571-1.3l1.214-4.781a.092.092 0 00.002-.037.091.091 0 00-.036-.062.084.084 0 00-.033-.016.095.095 0 00-.06.003.095.095 0 00-.045.039l-2.571 4.327 1.529.527zm-2.696-.821l.6-5.335a.097.097 0 00-.072-.102.098.098 0 00-.067.009.098.098 0 00-.044.05l-1.843 5.136 1.426.242zm-2.55-.342c-.007 0-.505-3.983-.735-5.829a.093.093 0 00-.066-.08.096.096 0 00-.094.022.096.096 0 00-.028.058l-.455 5.802 1.379.027zm-9.152 2.463l-1.32-3.458a.097.097 0 01.054-.122.097.097 0 01.056-.002.094.094 0 01.048.03l2.356 2.879-1.194.673zm2.57-1.3l-1.215-4.781a.097.097 0 01.038-.1.097.097 0 01.136.027l2.568 4.327-1.526.527zm2.695-.821l-.6-5.335a.095.095 0 01.022-.069.096.096 0 01.064-.035.096.096 0 01.098.061l1.843 5.136-1.427.242zm3.317 13.641c-3.789 0-7.681-1.924-11.574-5.723l.557-.573c3.81 3.719 7.596 5.572 11.228 5.494 3.525-.072 7.054-1.951 10.489-5.588l.581.551c-3.588 3.796-7.306 5.76-11.053 5.837l-.228.002z" fill="#1C1C1C"/><path d="M87.78 107.078v10.691h3.819v19.167l1.867 8.096h4.195l1.851-8.006.01-19.257h3.825v-10.691H87.779zm10.945 29.812l-1.698 7.342H94.1l-1.703-7.342v-19.121h6.327v19.121zm3.824-19.92h-13.97v-9.093h13.97v9.093z" fill="#1E1E1E"/></svg>