<svg width="261" height="294" fill="none" xmlns="http://www.w3.org/2000/svg"><path d="M.5.5h260v293H.5V.5z" stroke="#1E4844"/><path d="M78.386 266.261h-2.171V270H74.99v-9.242h3.06c1.04 0 1.84.237 2.399.711.563.474.844 1.163.844 2.069 0 .576-.157 1.077-.47 1.504-.309.428-.74.747-1.295.959l2.171 3.923V270h-1.307l-2.006-3.739zm-2.171-.996h1.872c.605 0 1.086-.157 1.441-.47.36-.313.54-.732.54-1.257 0-.571-.171-1.009-.514-1.314-.339-.305-.83-.459-1.473-.463h-1.866v3.504zm12.016.463h-4.005v3.275h4.652V270h-5.871v-9.242h5.808v1.003h-4.59v2.97h4.006v.997zm7.268 1.86h-3.872l-.87 2.412H89.5l3.53-9.242h1.066L97.632 270h-1.25l-.883-2.412zm-3.504-1.003h3.142l-1.574-4.323-1.568 4.323zM98.876 270v-9.242h2.609c.804 0 1.515.178 2.133.533a3.58 3.58 0 011.428 1.517c.338.656.51 1.409.514 2.26v.59c0 .872-.169 1.636-.508 2.292a3.516 3.516 0 01-1.441 1.51c-.622.352-1.347.532-2.177.54h-2.558zm1.219-8.239v7.242h1.282c.939 0 1.669-.292 2.19-.876.525-.584.787-1.415.787-2.494v-.54c0-1.049-.248-1.864-.743-2.444-.491-.584-1.189-.88-2.094-.888h-1.422zm16.669 0h-2.971V270h-1.212v-8.239h-2.965v-1.003h7.148v1.003zm8.474 8.239h-1.225v-4.272h-4.659V270h-1.219v-9.242h1.219v3.973h4.659v-3.973h1.225V270zm7.388-4.272h-4.005v3.275h4.653V270h-5.872v-9.242h5.808v1.003h-4.589v2.97h4.005v.997zm10.493 1.86h-3.872l-.87 2.412h-1.256l3.529-9.242h1.066l3.536 9.242h-1.251l-.882-2.412zm-3.504-1.003h3.142l-1.574-4.323-1.568 4.323zm10.271-.324h-2.171V270h-1.225v-9.242h3.059c1.041 0 1.841.237 2.4.711.563.474.844 1.163.844 2.069 0 .576-.157 1.077-.47 1.504-.309.428-.74.747-1.295.959l2.171 3.923V270h-1.307l-2.006-3.739zm-2.171-.996h1.872c.606 0 1.086-.157 1.441-.47.36-.313.54-.732.54-1.257 0-.571-.172-1.009-.514-1.314-.339-.305-.83-.459-1.473-.463h-1.866v3.504zm12.67-3.504h-2.971V270h-1.212v-8.239h-2.965v-1.003h7.148v1.003zm2.678 8.239h-1.218v-9.242h1.218V270zm9.033-2.933c-.114.978-.476 1.733-1.085 2.266-.605.529-1.412.794-2.419.794-1.092 0-1.967-.391-2.628-1.174-.656-.783-.984-1.831-.984-3.142v-.889c0-.859.153-1.615.458-2.266.308-.652.744-1.151 1.307-1.498.563-.352 1.215-.527 1.955-.527.982 0 1.769.275 2.362.825.592.546.937 1.303 1.034 2.273h-1.225c-.106-.737-.336-1.27-.692-1.6-.351-.33-.844-.495-1.479-.495-.778 0-1.39.288-1.834.863-.44.576-.66 1.394-.66 2.457v.895c0 1.003.209 1.8.628 2.393.419.592 1.005.888 1.758.888.677 0 1.196-.152 1.555-.457.364-.309.606-.844.724-1.606h1.225zm2.895 1.936h4.38V270h-5.605v-9.242h1.225v8.245zm10.994-3.275h-4.006v3.275h4.653V270h-5.871v-9.242h5.808v1.003h-4.59v2.97h4.006v.997zM73.923 271.27h113.154v.634H73.923v-.634z" fill="#1E4844"/></svg>