<svg viewBox="0 0 98.8 139" xmlns="http://www.w3.org/2000/svg"><style/><defs><style>.adaptogenic-svg-2{fill:#282828}.adaptogenic-svg-3{fill:#262626}.adaptogenic-svg-4{fill:#ecc1b8}.adaptogenic-svg-5{fill:#c2d8cc}.adaptogenic-svg-9{fill:#fee6d4}.adaptogenic-svg-10{fill:#8695c7}</style></defs><g data-name="Layer 2"><path d="M98.8 137L0 138.27v-88.7C0 22.77 21.7-.23 48.6-.23h1.64c26.8 0 48.6 25.1 48.6 48.6z" fill="#f8e7d6"/><rect class="adaptogenic-svg-2" x="31.2" y="25.8" width="32" height="58.5" rx="16"/><path class="adaptogenic-svg-3" d="M59 122a4.42 4.42 0 01-2.95-1.12 4.36 4.36 0 00-5.8 0 4.43 4.43 0 01-5.9 0 4.36 4.36 0 00-5.8 0 4.43 4.43 0 01-5.9 0 4.37 4.37 0 00-4.67-.728 7.95 7.95 0 01-3.23.738h-9.08v-4.96h63.2v4.96h-9.08a7.95 7.95 0 01-3.23-.738 4.37 4.37 0 00-4.67.728 4.42 4.42 0 01-2.95 1.12zm-5.9 9a4.56 4.56 0 01-3.04-1.16 4.26 4.26 0 00-5.67 0 4.56 4.56 0 01-6.07 0 4.26 4.26 0 00-2.84-1.08v-.376a4.63 4.63 0 013.08 1.17 4.18 4.18 0 005.57 0 4.64 4.64 0 016.17 0 4.18 4.18 0 005.57 0 4.63 4.63 0 013.08-1.17v.376a4.26 4.26 0 00-2.84 1.08 4.55 4.55 0 01-3.03 1.16z"/><path class="adaptogenic-svg-3" d="M47.1 84.4h.376v32H47.1z"/><path class="adaptogenic-svg-4" d="M78.4 66.8l-2.04-5.49c-2.92 2.39-2.29 5.46-.401 8.76 1.4 1.51 2.04-.364 2.45-3.27"/><path class="adaptogenic-svg-2" d="M76.9 70.8a1.52 1.52 0 01-1.04-.594c-1.47-2.56-2.99-6.24.42-9.04l.203-.167 2.15 5.78-.006.047c-.352 2.54-.8 3.71-1.5 3.93a.77.77 0 01-.23.035zm-.581-9.17c-2.27 2-2.31 4.58-.156 8.35.324.342.622.496.854.423.509-.161.926-1.37 1.24-3.58z"/><path class="adaptogenic-svg-4" d="M76 70.3l.608-2.19c-.188.871-.389 1.63-.56 2.21a29.7 29.7 0 004.95 1.21 4.18 4.18 0 00.303-1.58c-.06-4.28-1.65-14.1-1.65-14.1s-3.75.06-2.83 3.67a19.7 19.7 0 01-.205 8.56"/><path class="adaptogenic-svg-2" d="M81.2 71.7l-.151-.025a29.5 29.5 0 01-4.98-1.22l-.169-.059.05-.172.001-.003-.05-.013.609-2.19.363.09c-.15.694-.32 1.38-.511 2.05a29.1 29.1 0 004.6 1.12 3.98 3.98 0 00.235-1.37c-.054-3.91-1.41-12.6-1.62-13.9a3.25 3.25 0 00-2.2 1.04 2.71 2.71 0 00-.288 2.39 20.1 20.1 0 01-.204 8.64l-.367-.08a19.7 19.7 0 00.205-8.47 3.06 3.06 0 01.355-2.71 3.72 3.72 0 012.66-1.2l.163-.003.025.162c.017.098 1.6 9.9 1.65 14.1a4.4 4.4 0 01-.315 1.65z"/><path class="adaptogenic-svg-5" d="M53.8 66.2h17v5.82h-17z"/><path class="adaptogenic-svg-2" d="M71.1 72.2H53.7v-6.19h17.4zm-17-.376h16.7v-5.44H54.1z"/><path class="adaptogenic-svg-5" d="M46.3 50.2h32.1v3.18a16 16 0 01-16 16 16 16 0 01-16-16V50.2z"/><path class="adaptogenic-svg-2" d="M62.4 69.6a16.2 16.2 0 01-16.2-16.2v-3.37h32.4v3.37a16.2 16.2 0 01-16.2 16.2zM46.6 50.4v2.99a15.8 15.8 0 1031.7 0V50.4z"/><path d="M62.4 50.2l16.3-15.4a3.45 3.45 0 013.38 1.98l-7.44 13.4z" fill="#204844"/><path class="adaptogenic-svg-2" d="M74.7 50.4H61.9l16.7-15.7.078.002a3.66 3.66 0 013.55 2.09l.04.085-.046.083zm-11.8-.376h11.6l7.34-13.2a3.26 3.26 0 00-3.1-1.78z"/><circle cx="55.1" cy="25.7" r="4.7" fill="#d59264"/><path class="adaptogenic-svg-2" d="M55.1 30.6a4.89 4.89 0 114.89-4.89 4.9 4.9 0 01-4.89 4.89zm0-9.4a4.51 4.51 0 104.51 4.51 4.52 4.52 0 00-4.51-4.51z"/><path d="M68.4 31a4.5 4.5 0 01-5.89 5.89A4.5 4.5 0 1068.4 31z" fill="#f2c68a"/><path class="adaptogenic-svg-2" d="M66.6 39.8a4.68 4.68 0 01-4.32-2.88l-.178-.423.424.178a4.24 4.24 0 001.66.333 4.31 4.31 0 003.98-5.97l-.176-.421.421.176a4.69 4.69 0 01-1.81 9.01zm-3.78-2.62a4.31 4.31 0 105.85-5.85 4.69 4.69 0 01-5.85 5.85z"/><path class="adaptogenic-svg-4" d="M44.9 60.2a7.04 7.04 0 00-7.14 6.61 7 7 0 005.66 7.25c.991.193 1.92.392 2.63.577l21 5.52 15.4-6.25 7.36-16.8a5.5 5.5 0 00-4.45 2.27l-6.7 9.24-10.7 3.15a2.59 2.59 0 01-3.22-1.77 2.59 2.59 0 012.18-3.29l7.02-1.02a1.73 1.73 0 001.27-2.53 1.9 1.9 0 00-1.39-.962c-2.72-.411-6.8.238-9.33.111-4.34-.218-7.22-.669-11.5.992a1.7 1.7 0 01-1.65-.224c-1.3-.996-4.09-2.89-6.42-2.9z"/><path class="adaptogenic-svg-2" d="M67.1 80.3l-.062-.016-21-5.52a41.773 41.773 0 00-2.62-.575 7.18 7.18 0 011.48-14.2h.04c2.35.012 5.1 1.84 6.53 2.94a1.51 1.51 0 001.47.2c3.78-1.47 6.52-1.3 9.99-1.09.509.03 1.03.061 1.58.09a36.7 36.7 0 003.68-.11 29.5 29.5 0 015.67-.001 2.07 2.07 0 011.52 1.06 1.91 1.91 0 01-1.4 2.81l-7.02 1.02a2.41 2.41 0 10.961 4.7l10.7-3.13 6.66-9.19a5.7 5.7 0 014.6-2.35h.288l-.116.263-7.39 16.8-.07.03zm-22.2-20a6.8 6.8 0 00-1.41 13.5c1.14.223 2.01.414 2.64.581l20.9 5.5 15.3-6.2 7.21-16.4a5.33 5.33 0 00-4.01 2.19l-6.74 9.29-.062.02-10.7 3.15a2.78 2.78 0 11-1.12-5.43l7.01-1.02a1.53 1.53 0 001.13-2.26 1.7 1.7 0 00-1.25-.867 29 29 0 00-5.59.003 37.1 37.1 0 01-3.72.11c-.552-.028-1.08-.06-1.59-.09-3.56-.213-6.14-.364-9.84 1.07a1.88 1.88 0 01-1.83-.248c-1.39-1.06-4.07-2.85-6.31-2.86z"/><circle class="adaptogenic-svg-9" cx="63.5" cy="30.4" r="1.01"/><path class="adaptogenic-svg-2" d="M63.5 31.6a1.19 1.19 0 111.19-1.19 1.2 1.2 0 01-1.19 1.19zm0-2.01a.818.818 0 10.819.819.819.819 0 00-.819-.819z"/><circle class="adaptogenic-svg-9" cx="56" cy="46.9" r="1.01"/><path class="adaptogenic-svg-2" d="M56 48.1a1.19 1.19 0 111.19-1.19A1.2 1.2 0 0156 48.1zm0-2.01a.818.818 0 10.817.817.819.819 0 00-.817-.817z"/><path class="adaptogenic-svg-10" d="M67.1 24.2a1.94 1.94 0 01-1.25-1.25.097.097 0 00-.184 0 1.94 1.94 0 01-1.25 1.25.097.097 0 000 .184 1.94 1.94 0 011.25 1.25.097.097 0 00.184 0 1.94 1.94 0 011.25-1.25.097.097 0 000-.184z"/><path class="adaptogenic-svg-2" d="M65.8 25.9a.283.283 0 01-.271-.197 1.75 1.75 0 00-1.13-1.13.285.285 0 010-.542 1.75 1.75 0 001.13-1.13.296.296 0 01.542 0 1.75 1.75 0 001.13 1.13.285.285 0 010 .542 1.75 1.75 0 00-1.13 1.13.282.282 0 01-.27.197zm-1.06-1.6a2.13 2.13 0 011.06 1.06 2.13 2.13 0 011.06-1.06 2.13 2.13 0 01-1.06-1.06 2.13 2.13 0 01-1.06 1.06z"/><path class="adaptogenic-svg-10" d="M53.1 36.7a1.94 1.94 0 01-1.25-1.25.097.097 0 00-.184 0 1.94 1.94 0 01-1.25 1.25.097.097 0 000 .184 1.94 1.94 0 011.25 1.25.097.097 0 00.184 0 1.94 1.94 0 011.25-1.25.097.097 0 000-.184z"/><path class="adaptogenic-svg-2" d="M51.8 38.3a.283.283 0 01-.271-.197 1.75 1.75 0 00-1.13-1.13.285.285 0 010-.542 1.75 1.75 0 001.13-1.13.295.295 0 01.542 0 1.75 1.75 0 001.13 1.13.285.285 0 010 .542 1.75 1.75 0 00-1.13 1.13.282.282 0 01-.27.197zm-1.06-1.6a2.13 2.13 0 011.06 1.06 2.13 2.13 0 011.06-1.06 2.14 2.14 0 01-1.06-1.06 2.13 2.13 0 01-1.06 1.06z"/><path class="adaptogenic-svg-10" d="M62.8 42.4a1.94 1.94 0 01-1.25-1.25.097.097 0 00-.184 0 1.94 1.94 0 01-1.25 1.25.097.097 0 000 .184 1.94 1.94 0 011.25 1.25.097.097 0 00.184 0 1.94 1.94 0 011.25-1.25.097.097 0 000-.184z"/><path class="adaptogenic-svg-2" d="M61.5 44.1a.282.282 0 01-.27-.195 1.75 1.75 0 00-1.13-1.13.285.285 0 010-.542 1.75 1.75 0 001.13-1.13.296.296 0 01.542 0 1.75 1.75 0 001.13 1.13.285.285 0 010 .542 1.75 1.75 0 00-1.13 1.13.283.283 0 01-.272.195zm-1.06-1.6a2.13 2.13 0 011.06 1.06 2.13 2.13 0 011.06-1.06 2.13 2.13 0 01-1.06-1.06 2.13 2.13 0 01-1.06 1.06z"/></g></svg>