<svg xmlns="http://www.w3.org/2000/svg" viewBox="0 0 98.759 137.299"><defs><style>.cannabinoids-svg-2{fill:#282828}.cannabinoids-svg-5{fill:#bed7cc}</style></defs><g id="Layer_2" data-name="Layer 2"><g id="Layer_1-2" data-name="Layer 1"><path d="M48.562 0h1.635A48.562 48.562 0 0198.76 48.562v88.737H0V48.562A48.562 48.562 0 0148.562 0z" fill="#f8e7d6"/><rect class="cannabinoids-svg-2" x="33.32" y="24.626" width="32.04" height="58.54" rx="16.02"/><path d="M61.033 121.246a4.42 4.42 0 01-2.947-1.123 4.357 4.357 0 00-5.798 0 4.43 4.43 0 01-5.895 0 4.357 4.357 0 00-5.798 0 4.43 4.43 0 01-5.896 0 4.365 4.365 0 00-4.67-.728 7.948 7.948 0 01-3.23.738H17.72v-4.956h63.24v4.956h-9.08a7.95 7.95 0 01-3.229-.738 4.367 4.367 0 00-4.67.728 4.42 4.42 0 01-2.948 1.123zm-5.823 8.898a4.556 4.556 0 01-3.036-1.156 4.257 4.257 0 00-5.669 0 4.564 4.564 0 01-6.07 0 4.256 4.256 0 00-2.836-1.08v-.376a4.635 4.635 0 013.085 1.174 4.184 4.184 0 005.572 0 4.64 4.64 0 016.168 0 4.184 4.184 0 005.572 0 4.635 4.635 0 013.085-1.174v.376a4.256 4.256 0 00-2.836 1.08 4.553 4.553 0 01-3.034 1.156zm-6.059-46.977h.376v32.01h-.376z" fill="#262626"/><path d="M55.386 63.312l2.982-4.209a29.57 29.57 0 004.896-11.437l.556-2.854a1.925 1.925 0 00-.518-1.719l-3.362-3.41.725-4.57 6.027-8.849-4.655-2.157-7.672 5.047a2.239 2.239 0 00-.863 1.076l-.59 1.556.013.015a3.948 3.948 0 00-3.158.024l-.13.097a5.968 5.968 0 00-.601-4.16l-5.121 5.154a3.883 3.883 0 00-1.129 2.762l-.081 7.16s-1.756 8.02-1.445 9.985l.99 10.002.49 6.963a4.884 4.884 0 003.102 4.23 8.769 8.769 0 006.02.109 4.816 4.816 0 003.231-4.39z" fill="#f2c68a"/><path class="cannabinoids-svg-2" d="M48.974 74.792a9.097 9.097 0 01-3.882-.888 4.461 4.461 0 01-2.516-3.761l-.513-7.304-.99-9.997a11.771 11.771 0 01.415-5.45l1.033-4.596.078-7.119a4.038 4.038 0 011.183-2.892l5.297-5.332.12.219a6.179 6.179 0 01-.413 6.602l-1.64 1.92.698 6.778-.109.06a3.17 3.17 0 01-2.29.272.188.188 0 01-.143-.225.185.185 0 01.225-.142 2.79 2.79 0 001.918-.176l-.69-6.69.053-.06 1.684-1.969a5.804 5.804 0 00.496-5.965l-4.94 4.972a3.665 3.665 0 00-1.073 2.628l-.082 7.161-1.04 4.645a11.508 11.508 0 00-.409 5.31l.994 10.014.513 7.31a4.086 4.086 0 002.3 3.446 8.71 8.71 0 006.887.27 4.18 4.18 0 002.751-3.742l.311-6.843 3.015-4.254a29.205 29.205 0 004.864-11.364l.556-2.853a1.742 1.742 0 00-.468-1.553l-5.896-5.981-.427 1.258a5.763 5.763 0 00-.088 3.428 3.792 3.792 0 00.744 1.385L58.913 45l-.082.119a10.945 10.945 0 00-2.07 8.09.187.187 0 01-.165.209.183.183 0 01-.208-.165 11.274 11.274 0 012.053-8.232l-1.229-1.466a4.15 4.15 0 01-.817-1.524 6.125 6.125 0 01.094-3.65l.62-1.837 6.325 6.416a2.12 2.12 0 01.571 1.888l-.556 2.854a29.565 29.565 0 01-4.93 11.51l-2.949 4.163-.305 6.734a4.555 4.555 0 01-2.998 4.077 9.575 9.575 0 01-3.293.606z"/><path class="cannabinoids-svg-2" d="M50.204 42.251a1.772 1.772 0 01-.752-.176.188.188 0 01.159-.34 1.343 1.343 0 001.46-.18l.157-5.827a.188.188 0 01.188-.183h.004a.188.188 0 01.184.192l-.163 6.005-.068.055a1.862 1.862 0 01-1.17.454z"/><path class="cannabinoids-svg-2" d="M55.256 38.006a2.689 2.689 0 01-1.513-.468l-3.28-2.225a.188.188 0 11.212-.311l3.28 2.225a2.296 2.296 0 002.989-.336l-4.039-4.903a3.733 3.733 0 00-3.043 0 .192.192 0 01-.257-.07.188.188 0 01.069-.256 4.114 4.114 0 013.399-.016l.052.016.036.044 4.273 5.188-.098.118a2.675 2.675 0 01-2.08.994z"/><path class="cannabinoids-svg-2" d="M53.639 41.123a2.139 2.139 0 01-.84-.19.19.19 0 01-.1-.247.191.191 0 01.246-.1 1.278 1.278 0 001.332-.041l.985-2.727a.181.181 0 01.24-.113.186.186 0 01.112.24l-1.021 2.833-.044.034a1.466 1.466 0 01-.91.311zm2.549-5.26a.24.24 0 01-.054-.007.19.19 0 01-.126-.235l.934-3.118.043-.037 6.524-5.543-1.532-2.552-7.509 4.94a2.033 2.033 0 00-.79.985l-.59 1.555a.195.195 0 01-.241.11.188.188 0 01-.11-.242l.588-1.555a2.407 2.407 0 01.938-1.167l7.835-5.154 1.899 3.16-.122.104-6.604 5.61-.903 3.013a.19.19 0 01-.18.133zm3.937 3.85l-.37-.059.753-4.646 5.776-8.711.314.208-5.754 8.678-.719 4.53z"/><path class="cannabinoids-svg-5" d="M71.32 7.979s.007 8.3-1.813 14.409c-1.25 4.2-6.941 6.079-6.941 6.079s-1.46-4.898.943-8.938c3.256-5.474 7.81-11.55 7.81-11.55z"/><path class="cannabinoids-svg-2" d="M63.376 19.45c3.223-5.418 7.774-11.503 7.82-11.564l.278-.372v.465c0 .083-.014 8.392-1.819 14.453-1.26 4.23-6.805 6.104-7.04 6.182l-.152.05-.046-.154a14.064 14.064 0 01-.382-4.742 10.261 10.261 0 011.34-4.317zm5.983 2.894a59.218 59.218 0 001.8-13.89c-1.047 1.42-4.767 6.532-7.517 11.155-2.1 3.53-1.188 7.788-.97 8.655.914-.338 5.588-2.231 6.687-5.92z"/><path class="cannabinoids-svg-5" d="M55.008 17.13s3.11 3.208 5.575 6.193a9.71 9.71 0 011.8 5.158s-3.558-.404-4.783-2.984a41.52 41.52 0 01-2.592-8.366z"/><path class="cannabinoids-svg-2" d="M55.12 17.023c.03.032 3.141 3.245 5.583 6.2a9.751 9.751 0 011.835 5.253l.006.18-.178-.02c-.15-.017-3.659-.446-4.906-3.072a42 42 0 01-2.604-8.404l-.097-.509zm5.345 6.399c-1.937-2.345-4.297-4.853-5.196-5.796a39.862 39.862 0 002.47 7.805c1.017 2.14 3.743 2.743 4.478 2.869a9.4 9.4 0 00-1.752-4.878z"/><path class="cannabinoids-svg-5" d="M75.563 31.796s-4.081-1.716-7.707-3.075a10.446 10.446 0 00-5.428-.198s1.542 3.232 4.38 3.55a41.52 41.52 0 008.755-.277z"/><path class="cannabinoids-svg-2" d="M62.39 28.373a10.475 10.475 0 015.52.203c3.588 1.344 7.672 3.06 7.713 3.078l.514.217-.552.079a42.04 42.04 0 01-8.794.277c-2.89-.324-4.438-3.502-4.502-3.638l-.082-.17zm5.412.493a10.157 10.157 0 00-5.142-.235c.367.667 1.823 3.026 4.165 3.288a39.84 39.84 0 008.144-.203 241.328 241.328 0 00-7.167-2.85z"/><path class="cannabinoids-svg-5" d="M58.813 29.573a9.838 9.838 0 012.07-1.136 1.88 1.88 0 011.461.334 1.746 1.746 0 01-1.19.925 11.106 11.106 0 01-2.34-.123z"/><path class="cannabinoids-svg-2" d="M58.722 29.448a9.88 9.88 0 012.11-1.157 2.017 2.017 0 011.603.354l.107.078-.06.118a1.881 1.881 0 01-1.314 1.01 11.1 11.1 0 01-2.38-.125l-.365-.06zm2.212-.864a8.653 8.653 0 00-1.7.89 9.848 9.848 0 001.905.067 1.474 1.474 0 00.996-.72 1.572 1.572 0 00-1.201-.237z"/><path class="cannabinoids-svg-5" d="M61.93 33.354a12.406 12.406 0 001.175-2.734 2.37 2.37 0 00-.596-1.795 2.201 2.201 0 00-1.017 1.607 14.005 14.005 0 00.437 2.922z"/><path class="cannabinoids-svg-2" d="M62.426 28.694l.112-.07.087.1a2.481 2.481 0 01.63 1.933 12.436 12.436 0 01-1.192 2.775l-.188.32-.095-.359a13.929 13.929 0 01-.442-2.96c0-.05.002-.1.006-.15a2.418 2.418 0 011.082-1.589zm.529 1.889a2.058 2.058 0 00-.476-1.546 1.904 1.904 0 00-.832 1.395 12.73 12.73 0 00.34 2.499 11.255 11.255 0 00.968-2.348z"/><path class="cannabinoids-svg-2" d="M50.907 50.606a.188.188 0 01-.11-.34c2.466-1.794 3.543-5.353 4.684-9.12 1.342-4.439 2.866-9.47 6.966-12.825a.188.188 0 11.238.29c-4.013 3.281-5.517 8.256-6.845 12.644-1.16 3.829-2.254 7.446-4.823 9.316a.189.189 0 01-.11.035zm-1.75 6.391h-.013a.189.189 0 01-.175-.201 8.175 8.175 0 012.532-5.376.188.188 0 01.264.267 7.809 7.809 0 00-2.42 5.135.189.189 0 01-.188.175zm6.563-9.367a.188.188 0 01-.119-.333 6.288 6.288 0 012.34-1.365.176.176 0 01.212.161.188.188 0 01-.161.212 5.81 5.81 0 00-2.153 1.282.185.185 0 01-.12.043zm-4.304-11.898l.346.235-.379 1.002.033-1.237z"/></g></g></svg>