<svg xmlns="http://www.w3.org/2000/svg" viewBox="0 0 98.759 137.299"><defs><style>.edible-svg-2{fill:#282828}</style></defs><g id="Layer_2" data-name="Layer 2"><g id="Layer_1-2" data-name="Layer 1"><path d="M48.562 0h1.635A48.562 48.562 0 0198.76 48.562v88.737H0V48.562A48.562 48.562 0 0148.562 0z" fill="#f8e7d6"/><rect class="edible-svg-2" x="35.704" y="24.882" width="32.04" height="58.54" rx="16.02"/><path d="M44.038 55.32c-.815 3.94-.38 8.353 4.497 10.495l3.498-1.5a29.558 29.558 0 0022.487 9.803c14.742-.058 11.993-8.745 9.495-9.399s-3.136 2.093-6.497 1.096c-4.626-1.373-6.61-15.397-14.491-16.74-7.33-1.25-7.496 3.248-7.496 3.248-3.988-2.358-7.813-1.227-11.493 2.998z" fill="#f2bcb4"/><path class="edible-svg-2" d="M74.391 74.305a30.092 30.092 0 01-22.414-9.761l-3.443 1.476-.073-.034c-4.092-1.796-5.684-5.497-4.607-10.704l.009-.048.032-.037c3.734-4.282 7.6-5.347 11.497-3.171a3.832 3.832 0 011.419-2.148c1.451-1.12 3.713-1.421 6.703-.893 4.548.8 6.955 5.734 9.078 10.088 1.61 3.302 3.001 6.153 4.965 6.558a4.786 4.786 0 003.817-.597 3.229 3.229 0 012.688-.496c1.198.312 2.345 2.167 2.09 4.18-.212 1.668-1.767 5.55-11.632 5.587zm-22.3-10.218l.09.113a29.61 29.61 0 0022.21 9.73h.128c9.567-.037 11.062-3.69 11.26-5.26.228-1.796-.786-3.501-1.81-3.768a2.868 2.868 0 00-2.413.46 5.138 5.138 0 01-4.076.636c-2.144-.442-3.571-3.37-5.227-6.76-2.084-4.274-4.445-9.115-8.803-9.883-2.885-.505-5.046-.23-6.409.82a3.348 3.348 0 00-1.322 2.164l-.025.297-.258-.152c-3.844-2.27-7.517-1.315-11.224 2.923-1.025 5.025.429 8.457 4.325 10.202z"/><path class="edible-svg-2" d="M66.025 63.004a.195.195 0 01-.08-.017c-1.772-.844-3.354-2.853-5.028-4.98-1.683-2.138-3.425-4.35-5.478-5.522a.186.186 0 01-.07-.255.181.181 0 01.255-.07c2.119 1.207 3.883 3.448 5.588 5.616 1.646 2.09 3.202 4.065 4.894 4.87a.188.188 0 01-.08.358zm-13.35 2.229a.186.186 0 01-.126-.048c-.568-.517-2.395-3.004-2.361-4.083a.188.188 0 01.188-.182h.006a.187.187 0 01.182.194c-.028.857 1.632 3.24 2.238 3.792a.188.188 0 01-.127.327z"/><path d="M63.417 121.503a4.42 4.42 0 01-2.947-1.123 4.357 4.357 0 00-5.798 0 4.43 4.43 0 01-5.895 0 4.357 4.357 0 00-5.798 0 4.43 4.43 0 01-5.896 0 4.365 4.365 0 00-4.67-.729 7.949 7.949 0 01-3.23.738h-9.079v-4.956h63.24v4.956h-9.079a7.95 7.95 0 01-3.23-.738 4.367 4.367 0 00-4.67.729 4.42 4.42 0 01-2.948 1.123zm-5.823 8.897a4.553 4.553 0 01-3.034-1.156 4.26 4.26 0 00-5.67 0 4.564 4.564 0 01-6.072 0 4.256 4.256 0 00-2.835-1.08v-.376a4.635 4.635 0 013.085 1.174 4.184 4.184 0 005.572 0 4.642 4.642 0 016.17 0 4.182 4.182 0 005.571 0 4.634 4.634 0 013.083-1.174v.376a4.255 4.255 0 00-2.833 1.08 4.556 4.556 0 01-3.037 1.156zm-6.057-46.977h.376v32.01h-.376z" fill="#262626"/></g></g></svg>