<svg width="16" height="65" fill="none" xmlns="http://www.w3.org/2000/svg"><path d="M9.403 65h-3.15l1.554-.483c3.909-1.213 6.01-2.744 5.92-4.312-.092-1.58-2.403-3.101-6.507-4.287C2.564 54.574 0 52.84 0 51.033c0-1.806 2.564-3.542 7.22-4.885 4.207-1.215 6.523-2.775 6.521-4.393 0-1.619-2.316-3.179-6.521-4.393C2.564 36.018 0 34.282 0 32.476s2.566-3.54 7.22-4.884c4.207-1.215 6.523-2.775 6.521-4.393 0-1.619-2.316-3.179-6.521-4.393C2.564 17.462 0 15.727 0 13.921c0-1.807 2.564-3.542 7.22-4.886 4.082-1.178 6.391-2.691 6.505-4.261.112-1.556-1.939-3.08-5.776-4.293L6.426 0h3.127l.265.086C13.805 1.38 16 2.998 16 4.643c0 1.805-2.564 3.54-7.22 4.885-4.207 1.214-6.523 2.774-6.523 4.393 0 1.618 2.316 3.178 6.523 4.392C13.436 19.657 16 21.393 16 23.2s-2.566 3.541-7.22 4.885c-4.207 1.213-6.523 2.774-6.523 4.392 0 1.618 2.316 3.179 6.523 4.393 4.656 1.344 7.222 3.08 7.22 4.886 0 1.806-2.564 3.541-7.22 4.884-4.207 1.215-6.523 2.775-6.523 4.393 0 1.619 2.316 3.179 6.523 4.393 4.505 1.3 7.061 2.978 7.2 4.724.137 1.73-2.105 3.423-6.314 4.766L9.403 65z" fill="#fff"/></svg>