<svg width="118" height="46" fill="none" xmlns="http://www.w3.org/2000/svg"><path d="M109.822 8.583c0-.903.373-1.354.992-1.354.618 0 1.364.621 2.257 1.643l4.683 6.174v-7.99h-.004V7.05c-1.61-.6-2.847-.798-4.261-.798-4.212 0-6.813 3.079-6.838 6.753-.024 3.853 2.848 6.257 6.219 6.257 2.205 0 4.012-.774 5.13-2.479l-.025-.024c-.221.074-.422.099-.741.099-3.499.004-7.412-4.25-7.412-8.276zM98.539 18.982h8.108l-1.561-1.862V6.009l-4.953 3.037v8.04l-1.594 1.896zm6.822-16.205c0-1.651-.992-2.777-2.75-2.777-1.757 0-2.749 1.126-2.749 2.777 0 1.676.992 2.801 2.749 2.801 1.758 0 2.75-1.125 2.75-2.801zm-6.72 13.937l-.024-.025a3.654 3.654 0 01-1.463.277c-1.831 0-2.503-1.075-2.503-3.976V7.159h3.495v-.401H94.65V1.68l-6.863 5.454v.025h1.91v7.105c0 3.253 1.163 5.003 4.113 5.003 2.278 0 3.912-1.076 4.83-2.553zm-10.18 2.268l-1.62-1.933v-5.367c0-3.63-1.659-5.43-4.78-5.43-2.48 0-4.31 1.027-5.995 2.926l.123.125c.844-.65 1.61-.952 2.725-.952 1.885 0 2.974 1.378 2.974 4.13-4.113.45-6.539 1.978-6.539 4.279 0 1.576 1.09 2.503 2.7 2.503 1.365 0 2.676-.674 3.84-1.676l.003 1.39h6.568v.005zm-6.577-1.742a2.72 2.72 0 01-.57.074c-.99 0-1.486-.625-1.486-1.8 0-1.324.569-2.276 2.056-2.702v4.428zm-7.817-.286c.008-.186.004-1.072 0-1.974v-4.97c0-2.553-.967-3.877-3.073-3.877-1.413 0-2.749.774-4.83 2.479-.324-1.627-1.262-2.48-2.946-2.48-1.389 0-2.7.75-4.708 2.376V6.005l-6.366 2.25 1.413 1.226v7.618l-1.577 1.879h8.108l-1.578-1.883V8.802a3.393 3.393 0 011.463-.327c1.065 0 1.364.65 1.364 2.603v7.896h6.572l-1.618-1.929v-7.043c0-.426-.025-.799-.074-1.15a3.422 3.422 0 011.536-.377c1.066 0 1.365.65 1.365 2.603v7.531h.004c.07 5.558 1.97 7.354 3.286 8.372 2.306 1.42 4.855 1.639 7.026.393.91-.5 1.606-1.357 1.598-1.365.356-.493.586-1.11.578-1.883-.017-1.552-1.16-2.64-2.77-2.636-1.63 0-2.77 1.121-2.757 2.71.008 1.457.737 2.4 1.942 2.71-.963.398-2.004.398-2.56-.016-1.34-1.117-1.406-4.995-1.394-8.28h.004v-1.66h-.008zm-22.685-2.152c0-.922-.238-1.676-.718-2.33-.43-.537-1.02-1.018-1.778-1.431l-1.86-1.002c-1.462-.774-1.856-1.403-1.856-2.276 0-.7.377-1.382 1.45-1.192.558.1 1 .381 1.894 1.25L50.91 10.3V5.959h-4.195l.008.008c-3.142.083-5.072 1.71-5.072 4.172 0 .922.237 1.676.717 2.33.43.537 1.02 1.017 1.782 1.431l1.856 1.002c1.463.773 1.86 1.402 1.86 2.276 0 .699-.377 1.382-1.45 1.191-.557-.099-1-.38-1.893-1.25l-2.397-2.478v4.34h4.196l-.009-.007c3.139-.083 5.069-1.71 5.069-4.172zm-8.887 15.66v13.411l-1.573 1.875h8.108l-1.582-1.887V26.98l-6.367 2.251 1.414 1.23zm-9.55-11.48h8.108l-1.565-1.862V6.009l-4.954 3.037v8.04l-1.59 1.896zm6.817-16.205c0-1.651-.991-2.777-2.749-2.777s-2.75 1.126-2.75 2.777c0 1.676.992 2.801 2.75 2.801s2.75-1.125 2.75-2.801zm-10.78 8.073l3.606 2.276V6.49l-3.605 2.276V6.158l-6.367 2.151 1.413 1.225V17.1l-1.581 1.883h8.108l-1.573-1.879V10.85zM22.21 6.381c0-3.104-2.798-5.38-8.895-5.38H2.614l.029.009C.955 1.055 0 2.16 0 3.778 0 5.454.991 6.58 2.75 6.58c1.757 0 2.748-1.126 2.748-2.802 0-.935-.327-1.688-.922-2.18l.05.012c2.847-.066 2.847 1.514 2.847 1.514v14.269l-1.327 1.585h8.108l-1.332-1.585v-5.11c5.945-.046 9.288-2.198 9.288-5.902zm-5.695.025c0 3.401-1.438 5.454-3.593 5.479V1.403h.275c1.979 0 3.318 1.725 3.318 5.003zm2.028 24.142c0 1.676.992 2.802 2.75 2.802 1.757 0 2.749-1.126 2.749-2.802 0-.935-.328-1.688-.922-2.18l.049.012c2.848-.067 2.848 1.514 2.848 1.514v14.269l-1.328 1.585h8.108l-1.331-1.585v-5.111c5.944-.05 9.288-2.202 9.288-5.905 0-3.104-2.799-5.38-8.895-5.38H21.157l.029.009c-1.688.05-2.643 1.154-2.643 2.772zm12.923-2.38h.274c1.983 0 3.319 1.726 3.319 5.004 0 3.401-1.438 5.454-3.593 5.479V28.169zm18.248 15.328c0 1.577 1.09 2.504 2.7 2.504 1.36 0 2.675-.675 3.839-1.676l.004 1.39h6.572l-1.619-1.932v-5.363c0-3.63-1.659-5.43-4.78-5.43-2.48 0-4.311 1.027-5.995 2.926l.123.124c.844-.65 1.61-.951 2.724-.951 1.881 0 2.975 1.378 2.975 4.13-4.113.45-6.543 1.978-6.543 4.278zm4.482-1.25c0-1.324.57-2.275 2.057-2.702v4.428a2.73 2.73 0 01-.57.075c-.991 0-1.487-.625-1.487-1.8zm10.841 1.627l-1.577 1.879h8.108l-1.582-1.883v-4.445h.004v-.773h-.004v-3.059c.496-.227.992-.376 1.488-.376 1.016 0 1.487.65 1.487 2.603v7.933h6.572l-1.619-1.929v-7.08c0-2.553-1.09-3.878-3.196-3.878-1.684 0-3.121.977-4.732 2.376v-2.504l-6.367 2.251 1.414 1.225v7.66h.004zm13.602-9.981h1.91v7.105c0 3.252 1.163 5.003 4.113 5.003 2.278 0 3.913-1.076 4.83-2.553l-.024-.025a3.654 3.654 0 01-1.463.277c-1.831 0-2.503-1.076-2.503-3.977v-5.83h3.49v-.402h-3.49v-5.077l-6.863 5.454v.025zm11.083 3.016c0 .927.238 1.676.717 2.334.43.538 1.02 1.018 1.778 1.432l1.86 1.002c1.463.773 1.856 1.402 1.856 2.276 0 .699-.377 1.382-1.45 1.191-.557-.099-1-.38-1.893-1.25l-2.397-2.478v4.34h4.195l-.008-.007c3.143-.083 5.073-1.71 5.073-4.172 0-.922-.238-1.676-.718-2.334-.43-.538-1.02-1.018-1.782-1.431l-1.86-1.002c-1.462-.778-1.856-1.403-1.856-2.276 0-.7.377-1.382 1.45-1.192.558.1 1 .381 1.894 1.25l2.396 2.479v-4.341h-4.195l.008.008c-3.138.083-5.068 1.71-5.068 4.171z" fill="#fff"/></svg>