<svg width="1440" height="170" viewBox="0 0 1440 170" fill="none" xmlns="http://www.w3.org/2000/svg">
<path d="M-14 142.468C150.947 -14.1414 155.954 187.388 348.612 172.491C541.28 157.593 546.277 -18.7234 733.938 53.292C736.074 54.1124 738.226 54.8955 740.394 55.641C871.122 100.548 948.884 -34.5593 1093.14 9.58651C1239.74 54.4512 1220.52 174.738 1440 178.694V181.594H-13.9978L-14 142.468Z" fill="#C2D8CC"/>
</svg>
<!-- Generator: Adobe Illustrator 25.2.3, SVG Export Plug-In  -->
<svg version="1.1" xmlns="http://www.w3.org/2000/svg" xmlns:xlink="http://www.w3.org/1999/xlink" x="0px" y="0px" width="1px"
	 height="1px" viewBox="0 0 1 1" style="overflow:visible;enable-background:new 0 0 1 1;" xml:space="preserve">
<style type="text/css">
	.st0{fill:#C2D8CC;}
</style>
<defs>
</defs>
<path class="st0" d="M0,0.78c0.11-0.87,0.12,0.25,0.25,0.17c0.13-0.08,0.14-1.06,0.27-0.66c0,0,0,0.01,0,0.01
	c0.09,0.25,0.14-0.5,0.24-0.25C0.86,0.3,0.85,0.96,1,0.98V1H0L0,0.78z"/>
</svg>
