<svg width="26" height="26" fill="none" xmlns="http://www.w3.org/2000/svg"><path d="M13.5 3.417c3.286 0 3.672.015 4.97.073 1.202.054 1.851.254 2.286.425.576.225.986.488 1.416.918.43.43.698.84.918 1.416.166.435.37 1.084.425 2.285.058 1.299.073 1.685.073 4.97 0 3.287-.015 3.673-.073 4.972-.054 1.2-.254 1.85-.425 2.285a3.817 3.817 0 01-.918 1.416c-.43.43-.84.698-1.416.918-.435.166-1.084.37-2.285.425-1.3.058-1.685.073-4.971.073s-3.672-.015-4.97-.073c-1.202-.054-1.851-.254-2.286-.425a3.818 3.818 0 01-1.416-.918c-.43-.43-.698-.84-.918-1.416-.166-.435-.37-1.084-.425-2.285-.058-1.3-.073-1.685-.073-4.971s.015-3.672.073-4.97c.054-1.202.254-1.851.425-2.286.225-.576.488-.986.918-1.416.43-.43.84-.698 1.416-.918.435-.166 1.084-.371 2.285-.425 1.3-.063 1.685-.073 4.971-.073zm0-2.217c-3.34 0-3.76.015-5.073.073-1.309.059-2.202.269-2.984.572a5.995 5.995 0 00-2.177 1.42 6.101 6.101 0 00-1.421 2.178c-.303.782-.513 1.675-.572 2.989C1.215 9.74 1.2 10.16 1.2 13.5s.015 3.76.073 5.073c.059 1.309.269 2.202.572 2.988a5.986 5.986 0 001.42 2.178 6.103 6.103 0 002.178 1.421c.782.303 1.675.513 2.989.571 1.313.059 1.728.074 5.073.074 3.345 0 3.76-.015 5.073-.074 1.309-.058 2.202-.268 2.988-.57a5.997 5.997 0 002.178-1.422 6.1 6.1 0 001.421-2.178c.303-.78.513-1.674.571-2.988.059-1.313.074-1.728.074-5.073 0-3.345-.015-3.76-.074-5.073-.058-1.309-.268-2.202-.571-2.989a5.995 5.995 0 00-1.42-2.177 6.101 6.101 0 00-2.179-1.421c-.78-.303-1.674-.513-2.988-.571C17.26 1.215 16.84 1.2 13.5 1.2z" fill="#000"/><path d="M13.5 7.182a6.32 6.32 0 000 12.636 6.323 6.323 0 006.318-6.318A6.323 6.323 0 0013.5 7.182zm0 10.42a4.101 4.101 0 110-8.203 4.101 4.101 0 010 8.203zm6.567-9.195a1.475 1.475 0 100-2.949 1.475 1.475 0 000 2.95z" fill="#000"/></svg>