<svg width="26" height="26" fill="none" xmlns="http://www.w3.org/2000/svg"><path d="M13.447 2.014c1.586 0 3.1.31 4.544.93 1.444.62 2.689 1.453 3.735 2.5 1.047 1.047 1.88 2.292 2.5 3.735.62 1.443.93 2.958.93 4.544 0 2.114-.523 4.07-1.57 5.87a11.614 11.614 0 01-4.268 4.268c-1.8 1.047-3.756 1.57-5.87 1.57a11.93 11.93 0 01-3.324-.457c.589-.956.985-1.8 1.188-2.531l.824-3.202c.204.386.58.727 1.129 1.022a3.62 3.62 0 001.737.442c1.22 0 2.313-.35 3.278-1.052.965-.702 1.712-1.662 2.241-2.882.53-1.219.794-2.59.793-4.116 0-1.809-.697-3.38-2.089-4.711-1.393-1.332-3.166-1.998-5.321-1.998-1.322 0-2.531.224-3.629.672-1.098.447-1.982 1.032-2.653 1.753a8.019 8.019 0 00-1.54 2.348 6.501 6.501 0 00-.533 2.546c0 1.057.198 1.982.595 2.775.396.794.991 1.353 1.784 1.678.142.06.264.066.366.015.101-.051.173-.148.213-.29.143-.509.224-.824.244-.945.082-.224.031-.437-.152-.64-.529-.59-.793-1.352-.793-2.288 0-1.545.534-2.871 1.602-3.979 1.067-1.107 2.465-1.66 4.192-1.66 1.525 0 2.714.416 3.568 1.25.853.833 1.28 1.92 1.28 3.262 0 1.118-.152 2.15-.457 3.095-.305.945-.742 1.702-1.311 2.27-.57.57-1.22.855-1.951.855-.61 0-1.108-.224-1.494-.672-.386-.447-.508-.976-.366-1.586.081-.285.188-.65.32-1.097l.335-1.144c.091-.316.178-.656.259-1.021.08-.365.121-.67.122-.915 0-.509-.132-.925-.396-1.25-.264-.325-.65-.488-1.159-.488-.63 0-1.159.29-1.586.869-.428.58-.641 1.306-.64 2.18 0 .325.025.64.076.945.05.305.107.529.168.671l.09.214c-.833 3.618-1.34 5.742-1.524 6.372-.163.773-.224 1.678-.183 2.714-2.094-.935-3.786-2.368-5.077-4.3-1.291-1.931-1.936-4.076-1.936-6.434 0-3.232 1.143-5.992 3.43-8.278 2.286-2.287 5.046-3.43 8.278-3.43l.002.001z" fill="#444"/></svg>